<svg id="visual" viewBox="0 0 900 600" width="900" height="600" xmlns="http://www.w3.org/2000/svg" xmlns:xlink="http://www.w3.org/1999/xlink" version="1.1">
    <path d="M0 91L82 73L164 133L245 55L327 103L409 55L491 61L573 103L655 121L736 91L818 97L900 97L900 0L818 0L736 0L655 0L573 0L491 0L409 0L327 0L245 0L164 0L82 0L0 0Z" fill="#00cc8e"></path>
    <path d="M0 151L82 199L164 187L245 157L327 151L409 139L491 121L573 217L655 253L736 169L818 163L900 217L900 95L818 95L736 89L655 119L573 101L491 59L409 53L327 101L245 53L164 131L82 71L0 89Z" fill="#00b98a"></path>
    <path d="M0 295L82 325L164 367L245 379L327 313L409 349L491 433L573 367L655 367L736 373L818 361L900 439L900 215L818 161L736 167L655 251L573 215L491 119L409 137L327 149L245 155L164 185L82 197L0 149Z" fill="#00a784"></path>
    <path d="M0 385L82 361L164 403L245 427L327 385L409 427L491 469L573 457L655 421L736 469L818 457L900 481L900 437L818 359L736 371L655 365L573 365L491 431L409 347L327 311L245 377L164 365L82 323L0 293Z" fill="#00957c"></path>
    <path d="M0 601L82 601L164 601L245 601L327 601L409 601L491 601L573 601L655 601L736 601L818 601L900 601L900 479L818 455L736 467L655 419L573 455L491 467L409 425L327 383L245 425L164 401L82 359L0 383Z" fill="#038373"></path>
</svg>